<svg opacity='0.2' width="51" height="52" viewBox="0 0 51 52" fill="none" xmlns="http://www.w3.org/2000/svg">
<g opacity="0.2">
<path d="M25.4635 51.0244C19.6635 50.9891 14.0467 48.9888 9.53005 45.3499C5.0134 41.711 1.86368 36.6484 0.595006 30.9887C-0.124169 27.7182 -0.192115 24.338 0.395047 21.0411C0.982208 17.7443 2.21304 14.5955 4.01715 11.7743C5.82126 8.95312 8.16336 6.51489 10.9098 4.59887C13.6561 2.68285 16.753 1.32656 20.0236 0.607386C21.8266 0.212264 23.6663 0.00875379 25.5121 0.000244219C31.3164 0.0300781 36.9388 2.02795 41.4604 5.6673C45.9821 9.30665 49.1354 14.3722 50.405 20.0359C51.1242 23.3065 51.1921 26.6867 50.6049 29.9835C50.0178 33.2803 48.7869 36.4292 46.9828 39.2504C45.1787 42.0715 42.8366 44.5098 40.0902 46.4258C37.3438 48.3418 34.247 49.6981 30.9764 50.4173C29.1652 50.8123 27.3173 51.0158 25.4635 51.0244ZM25.4635 2.45305C23.8293 2.46741 22.2012 2.65467 20.6064 3.01165C17.6472 3.66157 14.8452 4.88856 12.3606 6.62248C9.87606 8.3564 7.75772 10.5632 6.12688 13.1167C4.49604 15.6701 3.38471 18.5199 2.85637 21.5032C2.32804 24.4866 2.39311 27.5449 3.04788 30.5031C3.68897 33.467 4.91045 36.2747 6.64197 38.7643C8.37349 41.2538 10.5807 43.3759 13.1364 45.0082C15.6921 46.6405 18.5457 47.7507 21.5325 48.2748C24.5194 48.7989 27.5806 48.7263 30.5393 48.0616C33.4985 47.4116 36.3005 46.1847 38.7851 44.4507C41.2696 42.7168 43.388 40.51 45.0188 37.9566C46.6497 35.4032 47.761 32.5533 48.2893 29.57C48.8176 26.5866 48.7526 23.5283 48.0978 20.5702C46.9471 15.4338 44.0852 10.841 39.9814 7.54476C35.8777 4.24853 30.7758 2.44465 25.5121 2.42881L25.4635 2.45305Z" fill="#1A1A1A"/>
<path d="M18.2506 38.6389C16.579 38.6389 14.945 38.1432 13.5551 37.2146C12.1653 36.2859 11.082 34.966 10.4423 33.4217C9.80267 31.8774 9.63539 30.1781 9.96149 28.5387C10.2876 26.8993 11.0925 25.3935 12.2744 24.2115C13.4564 23.0296 14.9622 22.2246 16.6017 21.8985C18.2411 21.5724 19.9404 21.7397 21.4847 22.3794C23.029 23.0191 24.3489 24.1024 25.2776 25.4922C26.2063 26.882 26.7019 28.516 26.7019 30.1875C26.7019 31.2974 26.4833 32.3964 26.0586 33.4217C25.6339 34.4471 25.0113 35.3788 24.2265 36.1636C23.4417 36.9484 22.5101 37.5709 21.4847 37.9956C20.4594 38.4203 19.3604 38.6389 18.2506 38.6389ZM18.2506 24.0675C17.0593 24.0675 15.8948 24.4208 14.9043 25.0826C13.9138 25.7444 13.1419 26.685 12.6861 27.7855C12.2302 28.886 12.111 30.0971 12.3434 31.2654C12.5758 32.4337 13.1494 33.5069 13.9917 34.3492C14.834 35.1915 15.9072 35.7651 17.0755 35.9975C18.2439 36.2299 19.4548 36.1106 20.5553 35.6548C21.6559 35.1989 22.5965 34.4269 23.2583 33.4365C23.9201 32.446 24.2734 31.2816 24.2734 30.0904C24.2479 28.5099 23.6021 27.0028 22.4753 25.8943C21.3486 24.7857 19.8312 24.1645 18.2506 24.1647L18.2506 24.0675Z" fill="#FFAE0A"/>
</g>
</svg>
