<svg opacity="0.2" width="24" height="25" viewBox="0 0 24 25" fill="none" xmlns="http://www.w3.org/2000/svg">
<path d="M8.54898 24.0015C8.14696 24.001 7.74675 23.9478 7.35854 23.8434C6.58994 23.6421 5.88874 23.2399 5.32693 22.6781C4.76512 22.1162 4.36293 21.4151 4.16164 20.6465L0.154428 5.69196C-0.0513356 4.92507 -0.0514784 4.11752 0.154015 3.35056C0.359507 2.58361 0.763385 1.88431 1.32501 1.32304C1.88663 0.761761 2.58618 0.358319 3.35326 0.153299C4.12034 -0.0517215 4.92789 -0.0510898 5.69465 0.155146L20.6503 4.16237C21.4166 4.36786 22.1154 4.77144 22.6764 5.33255C23.2374 5.89366 23.6408 6.59253 23.8461 7.35894C24.0513 8.12535 24.0513 8.93229 23.8459 9.69868C23.6406 10.4651 23.2371 11.1639 22.6761 11.725L11.7277 22.6734C11.312 23.094 10.817 23.4279 10.2714 23.6559C9.72574 23.8838 9.14031 24.0013 8.54898 24.0015ZM2.35322 5.10242L6.36043 20.0581C6.46231 20.4388 6.66265 20.7859 6.94129 21.0646C7.21993 21.3434 7.56704 21.5438 7.94773 21.6458C8.32841 21.7477 8.72923 21.7477 9.10988 21.6456C9.49053 21.5435 9.83758 21.3429 10.1161 21.0641L21.0646 10.1157C21.3433 9.83716 21.5439 9.49011 21.646 9.10946C21.7481 8.72882 21.7481 8.32799 21.6462 7.94731C21.5442 7.56663 21.3438 7.21951 21.0651 6.94087C20.7864 6.66223 20.4392 6.4619 20.0585 6.36001L5.10284 2.3528C4.7223 2.25054 4.32154 2.25031 3.94089 2.35215C3.56024 2.454 3.21313 2.65432 2.9345 2.93295C2.65587 3.21158 2.45556 3.55869 2.35371 3.93934C2.25187 4.31999 2.25209 4.72076 2.35435 5.10129L2.35322 5.10242Z" fill="#6381CD"/>
</svg>
