<svg opacity='0.2' width="24" height="25" viewBox="0 0 24 25" fill="none" xmlns="http://www.w3.org/2000/svg">
<path d="M8.5491 24.0015C8.14708 24.001 7.74687 23.9478 7.35866 23.8434C6.59006 23.6421 5.88886 23.2399 5.32705 22.6781C4.76524 22.1162 4.36305 21.4151 4.16176 20.6465L0.15455 5.69196C-0.0512135 4.92507 -0.0513563 4.11752 0.154137 3.35056C0.35963 2.58361 0.763507 1.88431 1.32513 1.32304C1.88675 0.761761 2.5863 0.358319 3.35338 0.153299C4.12046 -0.0517215 4.92802 -0.0510898 5.69477 0.155146L20.6504 4.16237C21.4168 4.36786 22.1155 4.77144 22.6765 5.33255C23.2375 5.89366 23.6409 6.59253 23.8462 7.35894C24.0515 8.12535 24.0514 8.93229 23.8461 9.69868C23.6407 10.4651 23.2372 11.1639 22.6762 11.725L11.7278 22.6734C11.3121 23.094 10.8171 23.4279 10.2715 23.6559C9.72586 23.8838 9.14044 24.0013 8.5491 24.0015ZM2.35334 5.10242L6.36055 20.0581C6.46244 20.4388 6.66277 20.7859 6.94141 21.0646C7.22005 21.3434 7.56717 21.5438 7.94785 21.6458C8.32853 21.7477 8.72935 21.7477 9.11 21.6456C9.49065 21.5435 9.8377 21.3429 10.1163 21.0641L21.0647 10.1157C21.3435 9.83716 21.544 9.49011 21.6461 9.10946C21.7482 8.72882 21.7483 8.32799 21.6463 7.94731C21.5443 7.56663 21.3439 7.21951 21.0652 6.94087C20.7865 6.66223 20.4393 6.4619 20.0586 6.36001L5.10296 2.3528C4.72242 2.25054 4.32166 2.25031 3.94101 2.35215C3.56036 2.454 3.21325 2.65432 2.93462 2.93295C2.656 3.21158 2.45568 3.55869 2.35383 3.93934C2.25199 4.31999 2.25221 4.72076 2.35448 5.10129L2.35334 5.10242Z" fill="#6381CD"/>
</svg>
