<svg width="76" height="95" viewBox="0 0 76 95" fill="none" xmlns="http://www.w3.org/2000/svg">
<path d="M27.5767 0V10.6773C47.8475 10.6773 64.3394 27.1552 64.3394 47.4089C64.3394 67.6626 47.8475 84.1398 27.5767 84.1398V94.8178C53.7821 94.8178 75.0257 73.5922 75.0257 47.4089C75.0257 21.2256 53.7821 0 27.5767 0Z" fill="#6990FF"/>
<path d="M25.9826 19.2651C13.2504 19.9737 2.77836 29.1214 0.0592142 41.2019C0.0392547 41.3801 0.0199596 41.5562 1.15199e-07 41.7337V94.9938C-9.04137e-06 94.9952 0.000527938 94.9967 0.00151072 94.9978C0.0024935 94.9989 0.00384959 94.9996 0.00531972 94.9997H10.681C10.6817 94.9997 10.6825 94.9996 10.6832 94.9993C10.6839 94.999 10.6845 94.9985 10.685 94.998C10.6855 94.9974 10.6859 94.9967 10.6861 94.996C10.6863 94.9953 10.6864 94.9945 10.6863 94.9938V42.7441C12.8366 34.9765 20.2163 29.3567 28.7869 29.9357C37.0162 30.4907 44.3946 37.7698 45.0466 45.9848C45.8636 56.2772 37.7141 64.9143 27.582 64.9177C27.5806 64.9177 27.5792 64.9182 27.5782 64.9192C27.5772 64.9202 27.5767 64.9216 27.5767 64.923V75.5896C27.5769 75.5911 27.5776 75.5924 27.5787 75.5934C27.5798 75.5944 27.5812 75.5949 27.5827 75.5949C42.7186 75.5949 55.0702 63.6792 55.7595 48.7256C56.5273 32.0782 42.6401 18.3377 25.9826 19.2651Z" fill="#6990FF"/>
<path d="M27.8948 55.9245C32.6017 55.9245 36.4175 52.112 36.4175 47.409C36.4175 42.7061 32.6017 38.8936 27.8948 38.8936C23.1878 38.8936 19.3721 42.7061 19.3721 47.409C19.3721 52.112 23.1878 55.9245 27.8948 55.9245Z" fill="#6990FF"/>
</svg>

