<?xml version="1.0" encoding="UTF-8"?>
<svg xmlns="http://www.w3.org/2000/svg" xmlns:xlink="http://www.w3.org/1999/xlink" width="1920px" height="800px" viewBox="0 0 1920 800" version="1.1">
<g id="surface1">
<path style=" stroke:none;fill-rule:nonzero;fill:rgb(98.039216%,98.823529%,98.823529%);fill-opacity:1;" d="M 0 0 C 633.601562 0 1267.199219 0 1920 0 C 1920 264 1920 528 1920 800 C 1286.398438 800 652.800781 800 0 800 C 0 536 0 272 0 0 Z M 0 0 "/>
<path style=" stroke:none;fill-rule:nonzero;fill:rgb(98.431373%,99.215686%,99.215686%);fill-opacity:1;" d="M 1920 501.808594 C 1920 600.210938 1920 698.613281 1920 800 C 1787.339844 800 1654.679688 800 1518 800 C 1518 749.488281 1533.460938 702.988281 1566 658.691406 C 1567.128906 657.121094 1567.128906 657.121094 1568.28125 655.515625 C 1572.976562 649.015625 1577.976562 642.765625 1583.53125 636.648438 C 1584.304688 635.792969 1585.078125 634.9375 1585.878906 634.054688 C 1593.246094 626.003906 1601.183594 618.367188 1609.5 610.847656 C 1610.136719 610.261719 1610.777344 609.671875 1611.433594 609.066406 C 1627.691406 594.097656 1645.933594 580.28125 1666.5 568.566406 C 1668.003906 567.683594 1669.503906 566.796875 1671.054688 565.886719 C 1743.074219 523.675781 1828.429688 501.808594 1920 501.808594 Z M 1920 501.808594 "/>
<path style=" stroke:none;fill-rule:nonzero;fill:rgb(98.431373%,78.823529%,5.098039%);fill-opacity:1;" d="M 86.15625 139.777344 C 136.976562 152.417969 185.003906 171.015625 228 194.714844 C 229.101562 195.320312 230.203125 195.925781 231.339844 196.546875 C 247.332031 205.390625 262.058594 214.898438 276.414062 225.160156 C 279.976562 227.667969 283.652344 230.074219 287.34375 232.476562 C 292.542969 235.921875 297.1875 239.5 301.667969 243.453125 C 305.054688 246.375 308.625 249.148438 312.1875 251.945312 C 322.496094 260.179688 331.492188 269.140625 340.5 278.164062 C 341.164062 278.820312 341.824219 279.476562 342.507812 280.152344 C 353.605469 291.164062 363.308594 302.789062 372.902344 314.546875 C 374.582031 316.59375 376.285156 318.636719 377.992188 320.671875 C 417.039062 368.175781 437.21875 424.722656 445.5 479.554688 C 445.628906 480.292969 445.757812 481.03125 445.886719 481.789062 C 447.011719 488.519531 447.289062 495.175781 447.359375 501.953125 C 447.371094 503.125 447.386719 504.300781 447.402344 505.507812 C 447.660156 531.695312 447.382812 557.210938 441 583.03125 C 440.671875 584.371094 440.339844 585.710938 440 587.089844 C 421.136719 661.414062 372.988281 748.128906 292.5 797.773438 C 289.296875 798.457031 289.296875 798.457031 286.5 798.886719 C 285.902344 798.363281 285.304688 797.839844 284.691406 797.300781 C 277.5625 791.140625 269.957031 785.445312 262.125 779.78125 C 259.484375 777.851562 256.847656 775.925781 254.210938 773.996094 C 250.082031 770.984375 245.949219 767.976562 241.804688 764.980469 C 237.78125 762.066406 233.777344 759.140625 229.78125 756.207031 C 228.527344 755.308594 227.273438 754.410156 225.980469 753.484375 C 224.273438 752.226562 224.273438 752.226562 222.535156 750.941406 C 221.523438 750.207031 220.511719 749.472656 219.46875 748.714844 C 217.5 746.59375 217.5 746.59375 217.75 744.246094 C 219.585938 741.15625 222.4375 739.367188 225.75 737.066406 C 233.710938 731.328125 240.648438 725.242188 247.5 718.777344 C 248.652344 717.71875 249.804688 716.660156 250.992188 715.570312 C 310.882812 659.535156 342.402344 590.382812 342.28125 519.125 C 342.28125 517.636719 342.28125 517.636719 342.277344 516.121094 C 342.242188 501.605469 341.949219 487.253906 339 472.878906 C 338.804688 471.914062 338.613281 470.953125 338.414062 469.960938 C 329.9375 429.128906 310.929688 389.164062 282 353.824219 C 281.308594 352.976562 280.621094 352.128906 279.90625 351.257812 C 270.433594 339.699219 260.445312 328.75 249 318.21875 C 248.003906 317.265625 247.007812 316.316406 245.980469 315.332031 C 237.089844 306.878906 227.464844 298.683594 217.007812 291.265625 C 214.5 289.289062 214.5 289.289062 214.5 287.066406 C 213.511719 287.066406 212.519531 287.066406 211.5 287.066406 C 211.5 286.332031 211.5 285.597656 211.5 284.839844 C 210.171875 284.40625 210.171875 284.40625 208.816406 283.964844 C 205.25 282.511719 203.183594 281.007812 200.4375 278.789062 C 192.707031 272.917969 184.097656 268.007812 175.300781 263.054688 C 173.472656 262.023438 171.652344 260.988281 169.832031 259.949219 C 154.027344 250.910156 137.332031 243.207031 120 235.882812 C 118.839844 235.390625 117.679688 234.898438 116.484375 234.390625 C 89.664062 223.136719 60.859375 214.898438 31.5 208.066406 C 28.5 207.328125 25.496094 206.589844 22.5 205.839844 C 23.550781 199.03125 25.808594 192.601562 28.253906 186 C 28.675781 184.851562 29.09375 183.703125 29.527344 182.523438 C 30.414062 180.101562 31.304688 177.679688 32.195312 175.257812 C 33.554688 171.582031 34.902344 167.90625 36.246094 164.226562 C 37.113281 161.867188 37.980469 159.503906 38.847656 157.140625 C 39.445312 155.511719 39.445312 155.511719 40.054688 153.847656 C 41.191406 150.777344 42.339844 147.710938 43.5 144.644531 C 43.890625 143.585938 44.28125 142.527344 44.683594 141.433594 C 45.261719 139.917969 45.261719 139.917969 45.851562 138.371094 C 46.195312 137.464844 46.535156 136.554688 46.886719 135.621094 C 50.5625 128.683594 78.09375 137.835938 86.15625 139.777344 Z M 86.15625 139.777344 "/>
<path style=" stroke:none;fill-rule:nonzero;fill:rgb(0.392157%,64.313725%,31.764706%);fill-opacity:1;" d="M 0 3.339844 C 29.164062 6.71875 57.164062 9.972656 85.5 15.578125 C 87.070312 15.882812 88.644531 16.191406 90.261719 16.507812 C 111.527344 20.691406 132.410156 25.398438 153 31.15625 C 154.398438 31.542969 155.796875 31.929688 157.234375 32.328125 C 190.269531 41.582031 222.679688 52.570312 253.1875 65.792969 C 257.460938 67.640625 261.777344 69.367188 266.15625 71.070312 C 301.5 85.335938 334.101562 104.066406 364.5 123.503906 C 365.558594 124.175781 366.617188 124.847656 367.703125 125.539062 C 388.167969 138.648438 408.785156 152.457031 426.238281 167.8125 C 428.53125 169.824219 430.859375 171.804688 433.210938 173.773438 C 497.402344 227.699219 542.976562 290.507812 574.5 358.273438 C 574.945312 359.214844 575.390625 360.15625 575.847656 361.125 C 589.414062 389.957031 597.050781 420.480469 603 450.625 C 603.1875 451.582031 603.378906 452.535156 603.574219 453.519531 C 604.53125 458.480469 605.335938 463.441406 606 468.429688 C 606.167969 469.640625 606.332031 470.851562 606.503906 472.101562 C 607.617188 481.949219 607.652344 491.789062 607.6875 501.667969 C 607.695312 503.078125 607.703125 504.492188 607.707031 505.945312 C 607.707031 507.261719 607.703125 508.578125 607.699219 509.9375 C 607.699219 511.128906 607.695312 512.320312 607.695312 513.550781 C 607.5 516.273438 607.5 516.273438 606 517.386719 C 602.933594 517.5 599.859375 517.539062 596.789062 517.546875 C 594.816406 517.554688 592.84375 517.5625 590.8125 517.570312 C 588.644531 517.570312 586.472656 517.570312 584.300781 517.570312 C 582.09375 517.574219 579.882812 517.578125 577.671875 517.582031 C 573.03125 517.589844 568.394531 517.59375 563.753906 517.589844 C 557.800781 517.589844 551.847656 517.605469 545.894531 517.625 C 541.324219 517.636719 536.757812 517.640625 532.191406 517.640625 C 529.996094 517.640625 527.800781 517.644531 525.605469 517.65625 C 522.539062 517.664062 519.472656 517.660156 516.40625 517.65625 C 514.65625 517.65625 512.910156 517.660156 511.109375 517.660156 C 507 517.386719 507 517.386719 504 515.160156 C 503.503906 511.847656 503.503906 511.847656 503.3125 507.550781 C 503.226562 505.933594 503.140625 504.316406 503.050781 502.699219 C 502.988281 501.414062 502.988281 501.414062 502.921875 500.097656 C 501.335938 469.910156 496.023438 439.882812 486 410.570312 C 485.4375 408.925781 485.4375 408.925781 484.863281 407.246094 C 473.910156 375.757812 458.109375 346 438.039062 317.125 C 436.476562 314.847656 434.972656 312.554688 433.46875 310.253906 C 425.625 298.476562 416.3125 287.546875 406.5 276.632812 C 405.558594 275.582031 405.558594 275.582031 404.597656 274.511719 C 395.742188 264.660156 386.375 255.199219 376.5 245.898438 C 375.457031 244.910156 374.414062 243.921875 373.34375 242.90625 C 361.238281 231.492188 348.621094 220.363281 334.5 210.292969 C 330.054688 207.019531 325.65625 203.714844 321.269531 200.398438 C 309.65625 191.65625 298.117188 183.304688 285 175.800781 C 282.71875 174.410156 280.4375 173.019531 278.15625 171.628906 C 243.261719 151 205.402344 133.125 165 119.054688 C 163.742188 118.609375 162.484375 118.164062 161.191406 117.707031 C 121.816406 103.867188 80.003906 93.796875 37.5 86.789062 C 35.371094 86.421875 33.246094 86.058594 31.117188 85.691406 C 21.742188 84.128906 12.554688 83.046875 3 82.335938 C 2.011719 81.96875 1.019531 81.601562 0 81.222656 C 0 55.523438 0 29.820312 0 3.339844 Z M 0 3.339844 "/>
<path style=" stroke:none;fill-rule:nonzero;fill:rgb(0%,45.098039%,72.156863%);fill-opacity:1;" d="M 171 322.671875 C 186.40625 328.191406 196.210938 340.429688 206.148438 350.367188 C 208.226562 352.441406 210.335938 354.492188 212.453125 356.542969 C 223.949219 367.832031 232.773438 380.21875 241.5 392.769531 C 242.363281 394.003906 242.363281 394.003906 243.246094 395.265625 C 263.289062 424.300781 275.277344 456.148438 280.5 488.457031 C 280.695312 489.59375 280.894531 490.730469 281.097656 491.902344 C 282.785156 503.65625 282.253906 515.601562 282 527.398438 C 281.980469 528.324219 281.960938 529.246094 281.941406 530.195312 C 280.601562 579.117188 258 629.632812 220.5 669.820312 C 219.375 671.039062 219.375 671.039062 218.226562 672.28125 C 208.972656 682.242188 199.355469 691.640625 188.097656 700.398438 C 185.128906 702.707031 182.363281 705.054688 179.625 707.511719 C 138.601562 742.441406 79.40625 767.613281 20.4375 781.640625 C 19.25 781.925781 18.066406 782.210938 16.84375 782.503906 C 15.730469 782.757812 14.613281 783.011719 13.464844 783.273438 C 12.492188 783.5 11.519531 783.722656 10.515625 783.953125 C 7.5 784.421875 7.5 784.421875 0 784.421875 C 0 758.351562 0 732.285156 0 705.425781 C 13.363281 701.019531 13.363281 701.019531 27 696.523438 C 52.835938 686.421875 75.855469 674.324219 97.5 659.804688 C 99.011719 658.804688 99.011719 658.804688 100.554688 657.785156 C 123.4375 641.773438 141.828125 619.8125 154.5 598.609375 C 154.953125 597.859375 155.40625 597.109375 155.875 596.335938 C 170.222656 572.171875 175.78125 547.375 175.777344 521.175781 C 175.78125 518.316406 175.808594 515.453125 175.835938 512.59375 C 175.90625 497.707031 174.308594 483.328125 169.3125 468.84375 C 168.996094 467.921875 168.675781 467 168.351562 466.046875 C 156.535156 433.148438 134.121094 404.632812 102.175781 380.253906 C 100.5 378.304688 100.5 378.304688 100.738281 376.28125 C 102.464844 372.960938 105.097656 371.152344 108.503906 368.648438 C 109.886719 367.625 111.265625 366.601562 112.691406 365.542969 C 114.207031 364.4375 115.722656 363.328125 117.242188 362.222656 C 118.785156 361.082031 120.332031 359.941406 121.875 358.796875 C 125.9375 355.796875 130.011719 352.808594 134.089844 349.820312 C 138.25 346.769531 142.398438 343.707031 146.546875 340.648438 C 154.683594 334.644531 162.839844 328.65625 171 322.671875 Z M 171 322.671875 "/>
<path style=" stroke:none;fill-rule:nonzero;fill:rgb(83.529412%,94.509804%,90.196078%);fill-opacity:1;" d="M 1920 501.808594 C 1920 516.128906 1920 530.449219 1920 545.203125 C 1913.441406 545.613281 1906.882812 546.027344 1900.125 546.453125 C 1877.300781 548.058594 1855.257812 551.113281 1833 555.214844 C 1831.660156 555.453125 1830.320312 555.691406 1828.941406 555.9375 C 1780.535156 564.757812 1733.429688 584.683594 1696.886719 609.652344 C 1693.84375 611.726562 1690.738281 613.726562 1687.59375 615.714844 C 1672.734375 625.386719 1660.34375 635.878906 1648.5 647.566406 C 1647.433594 648.597656 1646.371094 649.628906 1645.273438 650.691406 C 1637.644531 658.230469 1631.015625 666.132812 1624.699219 674.300781 C 1623.59375 675.726562 1622.480469 677.148438 1621.355469 678.566406 C 1591.960938 715.804688 1581.375 757.457031 1578 800 C 1558.199219 800 1538.398438 800 1518 800 C 1518 749.488281 1533.460938 702.988281 1566 658.691406 C 1567.128906 657.121094 1567.128906 657.121094 1568.28125 655.515625 C 1572.976562 649.015625 1577.976562 642.765625 1583.53125 636.648438 C 1584.304688 635.792969 1585.078125 634.9375 1585.878906 634.054688 C 1593.246094 626.003906 1601.183594 618.367188 1609.5 610.847656 C 1610.136719 610.261719 1610.777344 609.671875 1611.433594 609.066406 C 1627.691406 594.097656 1645.933594 580.28125 1666.5 568.566406 C 1668.003906 567.683594 1669.503906 566.796875 1671.054688 565.886719 C 1742.226562 524.175781 1829.238281 500.605469 1920 501.808594 Z M 1920 501.808594 "/>
<path style=" stroke:none;fill-rule:nonzero;fill:rgb(98.039216%,96.470588%,85.490196%);fill-opacity:1;" d="M 1845 579.695312 C 1850.804688 585.09375 1852.851562 592.527344 1855.125 599.097656 C 1855.457031 599.980469 1855.785156 600.863281 1856.125 601.777344 C 1858.1875 607.609375 1860.304688 613.75 1858.5 619.75 C 1852.386719 625.035156 1845.214844 626.757812 1836.46875 628.859375 C 1783.277344 642.59375 1739.128906 671.097656 1710 706.535156 C 1709.265625 707.359375 1708.535156 708.179688 1707.78125 709.027344 C 1684.144531 736.242188 1677.488281 768.546875 1672.5 800 C 1652.203125 800 1631.910156 800 1611 800 C 1610.367188 775.375 1614.675781 754.492188 1624.5 731.015625 C 1625.011719 729.757812 1625.519531 728.496094 1626.046875 727.199219 C 1634.84375 706.441406 1648.746094 686.035156 1666.5 668.707031 C 1667.359375 667.859375 1667.359375 667.859375 1668.234375 666.992188 C 1677.933594 657.402344 1687.917969 648.164062 1699.5 639.777344 C 1701.753906 638.109375 1704 636.441406 1706.25 634.769531 C 1708.5 633.101562 1710.75 631.433594 1713 629.761719 C 1714.195312 628.851562 1715.390625 627.9375 1716.621094 626.996094 C 1723.816406 621.8125 1731.925781 617.464844 1740 613.074219 C 1740.824219 612.625 1741.644531 612.175781 1742.496094 611.710938 C 1765.765625 599.195312 1791.886719 589.195312 1818.9375 582.058594 C 1821.054688 581.492188 1821.054688 581.492188 1823.214844 580.914062 C 1830.808594 579.027344 1837.226562 577.472656 1845 579.695312 Z M 1845 579.695312 "/>
<path style=" stroke:none;fill-rule:nonzero;fill:rgb(98.039216%,96.470588%,85.490196%);fill-opacity:1;" d="M 1874.53125 168.429688 C 1882.121094 169.492188 1886.109375 172.992188 1891.5 176.914062 C 1892.414062 177.484375 1893.324219 178.054688 1894.265625 178.640625 C 1898.453125 181.351562 1900.386719 183.25 1901.71875 187.273438 C 1900.242188 192.246094 1897.53125 194.621094 1893.195312 198.46875 C 1864.109375 225.070312 1853.140625 258.726562 1857.402344 292.472656 C 1861.75 317.832031 1876.742188 340.085938 1899 359.386719 C 1900.25 360.617188 1901.5 361.84375 1902.75 363.074219 C 1906.066406 366.117188 1906.066406 366.117188 1909.789062 367.136719 C 1914.238281 368.65625 1916.832031 369.941406 1920 372.738281 C 1921.742188 379.210938 1921.273438 385.511719 1920.84375 392.074219 C 1920.777344 393.863281 1920.714844 395.65625 1920.660156 397.449219 C 1920.511719 401.824219 1920.277344 406.195312 1920 410.570312 C 1901.433594 408.636719 1886.566406 396.554688 1873.5 387.203125 C 1872.53125 386.542969 1871.566406 385.886719 1870.570312 385.207031 C 1845.085938 367.359375 1827.855469 342.484375 1819.03125 317.664062 C 1818.773438 316.941406 1818.511719 316.222656 1818.246094 315.480469 C 1813.945312 303.394531 1811.753906 291.78125 1811.972656 279.285156 C 1811.996094 277.429688 1811.90625 275.578125 1811.789062 273.726562 C 1811.378906 266.71875 1812.707031 259.851562 1813.96875 252.921875 C 1814.144531 251.929688 1814.320312 250.9375 1814.503906 249.914062 C 1815.726562 243.6875 1817.875 238.386719 1821 232.546875 C 1821.644531 230.511719 1822.242188 228.472656 1822.78125 226.425781 C 1829.25 206.730469 1846.890625 186.695312 1866 172.460938 C 1866.785156 171.828125 1867.570312 171.195312 1868.378906 170.546875 C 1870.5 169.125 1870.5 169.125 1874.53125 168.429688 Z M 1874.53125 168.429688 "/>
<path style=" stroke:none;fill-rule:nonzero;fill:rgb(83.529412%,94.509804%,90.196078%);fill-opacity:1;" d="M 1762.40625 276.757812 C 1764.605469 276.75 1764.605469 276.75 1766.847656 276.746094 C 1768.382812 276.753906 1769.917969 276.765625 1771.5 276.773438 C 1773.035156 276.765625 1774.570312 276.757812 1776.152344 276.746094 C 1777.617188 276.75 1779.082031 276.753906 1780.59375 276.757812 C 1781.941406 276.757812 1783.289062 276.761719 1784.679688 276.761719 C 1788 277.050781 1788 277.050781 1791 279.277344 C 1792.789062 283.042969 1792.707031 286.785156 1792.875 290.75 C 1795.457031 326.828125 1817.402344 364.859375 1851.398438 390.742188 C 1854.671875 393.246094 1857.683594 395.773438 1860.65625 398.46875 C 1877.039062 412.417969 1897.941406 421.304688 1920 429.484375 C 1920 440.5 1920 451.515625 1920 462.863281 C 1871.726562 455.703125 1823.664062 419.011719 1797.367188 389.890625 C 1796.242188 388.625 1795.121094 387.359375 1794 386.089844 C 1793.175781 385.171875 1793.175781 385.171875 1792.335938 384.234375 C 1767.585938 356.304688 1751.761719 321.371094 1751.71875 287.761719 C 1751.691406 286.574219 1751.691406 286.574219 1751.664062 285.367188 C 1751.65625 283.335938 1751.816406 281.304688 1752 279.277344 C 1755.796875 276.460938 1757.152344 276.765625 1762.40625 276.757812 Z M 1762.40625 276.757812 "/>
<path style=" stroke:none;fill-rule:nonzero;fill:rgb(84.313725%,90.588235%,94.509804%);fill-opacity:1;" d="M 1772.765625 691.179688 C 1783.625 694.171875 1792.578125 703.164062 1800.75 709.179688 C 1801.523438 709.75 1802.296875 710.316406 1803.097656 710.902344 C 1806.484375 713.425781 1809.328125 715.800781 1812 718.777344 C 1811.566406 723.09375 1809.96875 725.214844 1805.90625 728.234375 C 1781.257812 748.167969 1773.113281 774.0625 1768.5 800 C 1748.699219 800 1728.898438 800 1708.5 800 C 1708.5 759.234375 1729.597656 721.839844 1767 692.074219 C 1770 690.960938 1770 690.960938 1772.765625 691.179688 Z M 1772.765625 691.179688 "/>
<path style=" stroke:none;fill-rule:nonzero;fill:rgb(84.313725%,90.588235%,94.509804%);fill-opacity:1;" d="M 1920 203.617188 C 1920 251.714844 1920 299.816406 1920 349.375 C 1909.46875 347.421875 1904.21875 339.332031 1898.683594 332.75 C 1878.023438 307.140625 1872.832031 278.082031 1882.113281 249.097656 C 1885.960938 238.789062 1902.320312 203.617188 1920 203.617188 Z M 1920 203.617188 "/>
</g>
</svg>
