<?xml version="1.0" standalone="no"?>
<!DOCTYPE svg PUBLIC "-//W3C//DTD SVG 20010904//EN"
 "http://www.w3.org/TR/2001/REC-SVG-20010904/DTD/svg10.dtd">
<svg version="1.0" xmlns="http://www.w3.org/2000/svg"
 width="1080.000000pt" height="1080.000000pt" viewBox="0 0 1080.000000 1080.000000"
 preserveAspectRatio="xMidYMid meet">

<g transform="translate(0.000000,1080.000000) scale(0.100000,-0.100000)"
fill="#000000" stroke="none">
<path d="M3947 7986 c-123 -45 -197 -150 -197 -278 l0 -48 -153 0 c-168 0
-237 -12 -318 -57 -74 -40 -137 -109 -178 -193 l-36 -75 -3 -1400 c-2 -1028 1
-1406 9 -1421 12 -24 49 -44 80 -44 11 0 34 13 50 29 l29 29 0 961 0 961 2153
0 2152 0 -2 -1037 c-2 -571 -3 -1044 -3 -1051 0 -7 -11 -24 -25 -37 l-24 -25
-244 0 c-134 0 -269 -5 -298 -10 -132 -25 -251 -119 -312 -247 l-32 -68 -5
-288 -5 -289 -30 -26 -30 -25 -1549 6 -1550 7 -52 25 c-30 15 -67 44 -85 66
-49 62 -59 112 -59 291 0 155 -1 159 -25 183 -33 34 -87 34 -121 0 l-25 -25 3
-373 3 -372 32 -68 c40 -85 125 -172 208 -212 l60 -30 2015 0 2015 0 66 32
c81 40 169 130 207 210 l27 58 0 2105 0 2105 -34 64 c-61 117 -173 203 -299
230 -29 6 -117 11 -196 11 l-143 0 -6 59 c-14 163 -126 271 -289 279 -65 3
-85 0 -130 -20 -29 -14 -67 -37 -85 -52 -45 -38 -91 -138 -96 -206 l-4 -55
-364 0 -364 0 -2 30 c-7 103 -29 157 -88 218 -54 55 -108 79 -191 85 -174 11
-305 -103 -322 -280 l-5 -58 -362 0 -362 0 -6 59 c-10 110 -71 204 -164 251
-59 30 -177 38 -236 16z m158 -172 c67 -31 70 -45 70 -280 0 -233 -4 -249 -61
-284 -60 -38 -130 -21 -171 39 -22 33 -23 42 -23 238 0 226 5 248 63 283 39
24 78 25 122 4z m1336 1 c16 -9 39 -30 49 -48 18 -29 20 -51 20 -235 0 -225
-5 -247 -63 -282 -59 -36 -134 -20 -173 37 -17 25 -19 48 -19 243 0 194 2 218
19 243 37 55 108 72 167 42z m1344 -5 c54 -33 60 -62 60 -285 0 -180 -2 -203
-19 -232 -44 -72 -140 -83 -200 -24 l-31 31 0 229 0 229 25 27 c45 49 110 59
165 25z m-3034 -435 c6 -124 22 -168 86 -231 108 -108 292 -114 407 -13 70 62
99 131 105 253 l6 101 360 0 360 0 6 -101 c6 -122 35 -191 105 -253 62 -54
127 -75 218 -69 82 6 124 24 184 82 74 70 92 122 96 271 l1 70 365 0 364 0 -2
-45 c-4 -60 15 -175 35 -214 33 -64 75 -106 138 -137 58 -29 70 -31 142 -27
122 6 209 61 260 166 24 48 28 72 32 160 l3 104 157 -4 c178 -4 218 -16 283
-84 68 -71 68 -77 69 -442 l0 -327 -2151 -3 -2150 -2 0 317 c0 182 4 333 10
354 22 80 97 153 177 175 31 8 98 12 188 11 l140 -2 6 -110z m3649 -3253 c0
-4 -144 -151 -320 -327 l-320 -320 0 216 c0 239 7 276 61 342 32 39 91 75 144
88 40 9 435 11 435 1z m133 -527 c-3 -380 -3 -396 -24 -440 -26 -56 -94 -117
-147 -133 -30 -9 -524 -12 -1989 -12 l-1949 0 -53 26 c-61 31 -114 96 -130
161 -18 71 -17 72 57 36 42 -21 94 -38 137 -44 43 -6 670 -8 1636 -7 l1565 3
75 37 c68 34 102 65 439 403 201 201 369 365 375 365 7 0 9 -135 8 -395z"/>
<path d="M3584 6176 c-17 -8 -44 -31 -60 -52 l-29 -37 0 -237 0 -237 28 -36
c49 -65 60 -67 307 -67 242 0 255 3 304 60 41 50 48 95 44 310 l-3 197 -29 37
c-56 74 -64 76 -311 76 -163 -1 -228 -4 -251 -14z m417 -326 l0 -165 -170 -3
-171 -2 0 170 0 170 171 -2 170 -3 0 -165z"/>
<path d="M4608 6170 c-20 -11 -47 -36 -60 -57 -22 -37 -23 -44 -23 -264 l0
-225 27 -41 c46 -70 66 -74 326 -71 221 3 228 4 261 27 63 45 71 80 71 311 0
194 -1 208 -22 250 -15 30 -37 53 -63 67 -38 22 -51 23 -260 22 -198 0 -224
-2 -257 -19z m432 -320 l0 -170 -175 0 -175 0 0 170 0 170 175 0 175 0 0 -170z"/>
<path d="M5641 6168 c-79 -54 -91 -94 -91 -318 0 -224 12 -264 90 -317 32 -22
41 -23 260 -23 219 0 228 1 260 23 18 12 43 35 54 50 20 27 21 41 21 267 0
225 -1 240 -21 266 -50 68 -53 69 -307 72 -229 3 -233 3 -266 -20z m429 -318
l0 -170 -170 0 -170 0 0 170 0 170 170 0 170 0 0 -170z"/>
<path d="M6684 6176 c-17 -8 -44 -31 -60 -52 l-29 -37 0 -237 0 -237 28 -36
c49 -65 60 -67 307 -67 242 0 255 3 304 60 41 50 48 95 44 310 l-3 197 -29 37
c-56 74 -64 76 -311 76 -163 -1 -228 -4 -251 -14z m417 -326 l0 -165 -170 -3
-171 -2 0 170 0 170 171 -2 170 -3 0 -165z"/>
<path d="M4645 5283 c-37 -9 -87 -55 -106 -97 -16 -36 -19 -67 -19 -241 0
-217 8 -253 61 -302 42 -38 73 -43 284 -43 216 0 242 4 289 48 51 48 56 73 56
299 0 235 -4 252 -73 307 l-39 31 -216 2 c-120 1 -226 -1 -237 -4z m390 -338
l0 -170 -170 0 -170 0 -3 160 c-1 87 0 165 3 172 3 11 41 13 172 11 l168 -3 0
-170z"/>
<path d="M5654 5271 c-85 -39 -104 -97 -104 -318 0 -182 11 -250 46 -293 46
-54 86 -62 320 -58 205 3 211 4 247 28 72 49 77 70 77 315 0 206 -1 219 -22
257 -12 21 -38 49 -58 61 -33 21 -48 22 -250 25 -194 2 -219 0 -256 -17z m416
-326 l0 -175 -170 0 -170 0 0 175 0 175 170 0 170 0 0 -175z"/>
<path d="M6680 5267 c-30 -16 -51 -37 -67 -67 -22 -41 -23 -53 -23 -255 0
-202 1 -214 23 -255 16 -30 37 -51 67 -67 41 -22 53 -23 249 -23 195 0 209 1
251 23 87 44 100 84 100 322 0 238 -13 278 -100 323 -42 21 -56 22 -251 22
-196 0 -208 -1 -249 -23z m421 -322 l0 -170 -170 -3 -171 -2 0 175 0 175 171
-2 170 -3 0 -170z"/>
<path d="M3607 5235 c-22 -7 -50 -24 -64 -37 -48 -44 -53 -71 -53 -298 0 -236
7 -265 72 -312 32 -22 42 -23 243 -26 239 -4 263 -1 305 35 60 50 64 69 68
284 2 124 0 211 -7 237 -15 55 -69 107 -126 121 -64 16 -390 14 -438 -4z m396
-332 l-2 -168 -170 -3 -171 -2 0 170 0 170 173 0 172 0 -2 -167z"/>
<path d="M3627 4381 c-43 -9 -81 -35 -111 -75 -20 -26 -21 -41 -21 -265 l0
-238 28 -36 c49 -65 60 -67 307 -67 242 0 255 3 303 60 40 47 47 90 47 285 0
198 -6 234 -47 278 -55 57 -71 61 -278 63 -104 2 -207 -1 -228 -5z m376 -338
l-2 -168 -170 -3 -171 -2 0 170 0 170 173 0 172 0 -2 -167z"/>
<path d="M4652 4378 c-54 -12 -107 -64 -122 -119 -7 -26 -10 -116 -8 -244 3
-199 3 -202 30 -242 45 -68 66 -73 313 -73 247 0 268 5 313 73 27 40 27 42 30
251 3 176 1 217 -13 253 -21 55 -67 90 -135 103 -65 12 -350 11 -408 -2z m388
-338 l0 -170 -175 0 -175 0 0 170 0 170 175 0 175 0 0 -170z"/>
<path d="M5697 4380 c-67 -13 -121 -66 -137 -136 -5 -21 -10 -113 -10 -204 0
-224 12 -264 90 -317 32 -22 41 -23 257 -23 250 0 261 2 310 67 l28 36 3 216
c2 135 -1 230 -7 253 -15 50 -68 94 -131 107 -56 12 -343 13 -403 1z m373
-340 l0 -170 -170 0 -170 0 0 170 0 170 170 0 170 0 0 -170z"/>
<path d="M3105 4288 c-31 -18 -44 -40 -45 -76 0 -84 117 -115 155 -41 22 42
18 67 -14 100 -31 30 -63 36 -96 17z"/>
</g>
</svg>
