<?xml version="1.0" standalone="no"?>
<!DOCTYPE svg PUBLIC "-//W3C//DTD SVG 20010904//EN"
 "http://www.w3.org/TR/2001/REC-SVG-20010904/DTD/svg10.dtd">
<svg version="1.0" xmlns="http://www.w3.org/2000/svg"
 width="1080.000000pt" height="1080.000000pt" viewBox="0 0 1080.000000 1080.000000"
 preserveAspectRatio="xMidYMid meet">

<g transform="translate(0.000000,1080.000000) scale(0.100000,-0.100000)"
fill="#000000" stroke="none">
<path d="M3795 7546 c-16 -8 -146 -130 -287 -273 -240 -240 -258 -261 -258
-294 0 -46 34 -79 80 -79 28 0 44 10 85 50 l50 50 380 -380 379 -380 -127
-128 c-109 -111 -127 -133 -127 -161 0 -45 22 -91 61 -128 38 -35 213 -113
256 -113 23 0 171 -143 913 -883 820 -819 889 -886 946 -910 129 -56 259 -52
386 11 l76 39 88 -88 c50 -50 98 -89 112 -92 32 -6 70 7 100 36 l23 21 298
-298 c225 -224 303 -297 316 -292 13 5 -51 76 -284 313 l-300 308 27 28 c21
22 27 38 27 72 0 43 -4 49 -90 135 -78 79 -88 92 -77 108 97 137 107 329 25
472 -15 28 -364 384 -902 923 -646 647 -875 882 -873 897 2 11 -16 68 -40 127
-30 76 -53 118 -80 145 -40 40 -96 61 -137 52 -15 -4 -80 -60 -151 -130 l-125
-124 -380 380 -379 379 52 55 c58 62 65 91 30 130 -30 32 -56 38 -93 22z m63
-38 c7 -7 12 -21 12 -32 0 -25 -516 -546 -540 -546 -24 0 -40 21 -40 50 0 20
54 79 258 283 254 253 281 274 310 245z m305 -576 l377 -377 -145 -145 -145
-145 -375 375 c-206 206 -375 379 -375 385 0 10 270 285 280 285 3 0 175 -170
383 -378z m762 -152 c41 -26 53 -44 100 -157 24 -60 35 -100 31 -116 -5 -20
17 -46 162 -190 l167 -167 -99 -99 c-66 -66 -94 -101 -86 -106 8 -5 47 27 109
89 l96 96 63 -62 62 -63 -67 -67 c-37 -37 -64 -71 -60 -75 4 -4 38 23 75 60
l67 67 67 -67 68 -68 -96 -96 c-62 -62 -94 -101 -89 -109 5 -8 40 20 106 86
l99 99 70 -70 70 -69 -67 -68 c-37 -37 -64 -71 -60 -75 4 -4 38 23 75 60 l68
67 69 -70 70 -70 -99 -99 c-66 -66 -94 -101 -86 -106 8 -5 47 27 109 89 l96
96 58 -57 57 -58 -67 -67 c-37 -37 -64 -71 -60 -75 4 -4 38 23 75 60 l67 67
58 -57 57 -58 -96 -96 c-62 -62 -94 -101 -89 -109 5 -8 40 20 106 86 l99 99
70 -70 70 -69 -67 -68 c-37 -37 -64 -71 -60 -75 4 -4 38 23 75 60 l68 67 69
-70 70 -70 -99 -99 c-66 -66 -94 -101 -86 -106 8 -5 47 28 109 89 l97 97 115
-118 c155 -158 174 -197 174 -348 0 -155 -17 -188 -180 -354 -130 -133 -186
-172 -279 -197 -99 -27 -211 -9 -308 49 -24 14 -438 421 -920 904 -698 698
-882 877 -896 872 -21 -8 -89 14 -184 60 -74 35 -108 76 -108 132 0 31 32 66
412 446 450 450 433 437 503 393z m1972 -2692 c108 -107 109 -120 19 -206 -39
-38 -73 -62 -86 -62 -15 0 -54 31 -112 87 l-88 87 87 88 c48 48 90 88 93 88 2
0 42 -37 87 -82z"/>
<path d="M3350 7035 c-18 -19 -30 -38 -27 -42 8 -7 77 55 77 69 0 16 -17 7
-50 -27z"/>
<path d="M3682 6901 c7 -19 389 -383 395 -377 13 12 -12 39 -197 214 -164 154
-209 191 -198 163z"/>
<path d="M4162 6069 c-94 -79 -104 -112 -55 -178 28 -36 85 -65 149 -76 64
-10 61 10 -4 25 -71 15 -102 33 -130 74 -36 53 -33 60 66 144 57 49 74 72 55
72 -5 0 -41 -28 -81 -61z"/>
<path d="M4970 5207 c0 -20 448 -459 461 -451 8 5 -444 464 -458 464 -2 0 -3
-6 -3 -13z"/>
<path d="M6020 4162 c0 -7 56 -52 127 -101 48 -33 140 -61 197 -61 54 0 122
25 145 54 23 28 6 29 -34 2 -48 -33 -98 -42 -162 -28 -70 14 -115 37 -191 94
-61 46 -82 57 -82 40z"/>
</g>
</svg>
