<?xml version="1.0" standalone="no"?>
<!DOCTYPE svg PUBLIC "-//W3C//DTD SVG 20010904//EN"
 "http://www.w3.org/TR/2001/REC-SVG-20010904/DTD/svg10.dtd">
<svg version="1.0" xmlns="http://www.w3.org/2000/svg"
 width="1080.000000pt" height="1080.000000pt" viewBox="0 0 1080.000000 1080.000000"
 preserveAspectRatio="xMidYMid meet">

<g transform="translate(0.000000,1080.000000) scale(0.100000,-0.100000)"
fill="#000000" stroke="none">
<path d="M5250 7331 c-141 -45 -264 -147 -328 -268 l-33 -63 -375 0 c-414 0
-404 1 -462 -64 -31 -36 -52 -90 -52 -137 0 -44 49 -128 91 -156 l39 -26 0
-223 0 -224 -385 0 c-427 0 -420 1 -470 -65 -51 -66 -42 -157 21 -219 l34 -33
3 -1067 c2 -936 4 -1068 17 -1076 9 -6 174 -10 397 -10 l382 0 3 -122 3 -123
1265 0 1265 0 3 123 3 122 382 0 c223 0 388 4 397 10 13 8 15 140 17 1076 l3
1067 34 33 c63 62 72 153 21 219 -50 66 -43 65 -470 65 l-385 0 0 224 0 223
39 26 c42 28 91 112 91 156 0 76 -53 161 -117 187 -25 11 -114 14 -402 14
l-370 0 -33 63 c-65 124 -195 229 -337 271 -74 22 -219 20 -291 -3z m351 -93
c171 -85 269 -240 269 -427 0 -135 -47 -250 -139 -341 -189 -187 -473 -187
-662 0 -92 91 -139 206 -139 341 0 208 124 380 325 452 39 13 75 17 161 15
104 -3 114 -5 185 -40z m-689 -665 c22 -56 99 -153 155 -195 202 -153 464
-153 666 0 56 42 133 139 155 195 l15 37 349 0 348 0 0 -1550 0 -1550 -345 0
-345 0 -2 478 -3 477 -505 0 -505 0 -3 -477 -2 -478 -345 0 -345 0 0 1550 0
1550 348 0 349 0 15 -37z m-782 -1768 l0 -1035 -360 2 -360 3 -3 1033 -2 1032
363 0 362 0 0 -1035z m3263 3 l-3 -1033 -360 -3 -360 -2 0 1035 0 1035 363 0
362 0 -2 -1032z m-2030 -850 l-3 -443 -200 -3 -200 -2 0 445 0 445 203 0 202
0 -2 -442z m477 -3 l0 -445 -200 2 -200 3 -3 443 -2 442 203 0 202 0 0 -445z"/>
<path d="M5272 7148 c-8 -8 -12 -45 -12 -105 l0 -93 -93 0 c-59 0 -97 -4 -105
-12 -13 -13 -18 -222 -6 -252 5 -13 24 -16 105 -16 l99 0 0 -100 c0 -121 -1
-120 140 -120 141 0 140 -1 140 120 l0 99 103 3 102 3 3 124 c2 82 -1 128 -9
137 -8 10 -37 14 -105 14 l-93 0 -3 103 -3 102 -125 3 c-89 2 -129 -1 -138
-10z"/>
<path d="M4297 6163 c-4 -3 -7 -259 -7 -568 0 -423 3 -564 12 -573 9 -9 133
-12 494 -12 425 0 484 2 498 16 14 14 16 79 16 568 0 416 -3 555 -12 564 -9 9
-135 12 -503 12 -271 0 -495 -3 -498 -7z m463 -298 l0 -235 -200 2 -201 3 0
228 c1 125 1 229 1 232 0 3 90 5 200 5 l200 0 0 -235z m480 0 l0 -235 -205 0
-205 0 0 235 0 235 205 0 205 0 0 -235z m-480 -545 l0 -240 -200 2 -201 3 0
233 c1 127 1 234 1 237 0 3 90 5 200 5 l200 0 0 -240z m480 0 l0 -240 -202 2
-203 3 -3 225 c-1 123 0 230 2 237 4 10 53 13 206 13 l200 0 0 -240z"/>
<path d="M5502 6158 c-9 -9 -12 -146 -12 -564 0 -489 2 -554 16 -568 14 -14
73 -16 498 -16 396 0 486 2 495 14 8 9 10 169 9 577 l-3 564 -495 3 c-377 2
-499 -1 -508 -10z m468 -293 l0 -235 -205 0 -205 0 0 235 0 235 205 0 205 0 0
-235z m471 0 l0 -230 -201 -3 -200 -2 0 235 0 235 200 -2 201 -3 0 -230z
m-476 -545 l0 -235 -202 -3 -203 -2 0 240 0 240 203 -2 202 -3 0 -235z m476 0
l0 -235 -201 -3 -200 -2 0 240 0 240 200 -2 201 -3 0 -235z"/>
<path d="M3530 5694 c-6 -15 -10 -312 -10 -774 0 -462 4 -759 10 -774 l10 -26
223 0 c160 0 226 3 235 12 17 17 17 1559 0 1576 -9 9 -75 12 -235 12 l-223 0
-10 -26z m410 -199 l0 -155 -171 2 -170 3 0 148 c0 81 1 149 1 152 0 3 77 5
170 5 l170 0 0 -155z m-2 -382 l-3 -158 -168 0 -168 0 0 153 c0 83 1 154 1
157 0 3 77 5 170 5 l171 0 -3 -157z m2 -388 l0 -155 -171 2 -170 3 -2 153 -2
152 173 0 172 0 0 -155z m-2 -382 l-3 -158 -168 0 -168 0 0 153 c0 83 1 154 1
157 0 3 77 5 170 5 l171 0 -3 -157z"/>
<path d="M6802 5708 c-17 -17 -17 -1559 0 -1576 9 -9 75 -12 235 -12 l223 0
10 26 c6 15 10 312 10 774 0 462 -4 759 -10 774 l-10 26 -223 0 c-160 0 -226
-3 -235 -12z m399 -213 l0 -150 -170 -3 -171 -2 0 155 0 155 171 -2 170 -3 0
-150z m0 -385 l0 -155 -168 0 -168 0 -3 158 -3 157 171 -2 171 -3 0 -155z m2
-382 l-2 -153 -170 -3 -171 -2 0 155 0 155 173 0 172 0 -2 -152z m-2 -388 l0
-155 -168 0 -168 0 -3 158 -3 157 171 -2 171 -3 0 -155z"/>
<path d="M5083 3923 c-18 -7 -16 -50 3 -57 9 -3 44 -6 79 -6 79 0 95 6 95 35
0 13 -7 26 -16 29 -18 7 -143 7 -161 -1z"/>
<path d="M5553 3923 c-18 -7 -16 -50 3 -57 9 -3 44 -6 79 -6 79 0 95 6 95 35
0 13 -7 26 -16 29 -18 7 -143 7 -161 -1z"/>
</g>
</svg>
