<?xml version="1.0" standalone="no"?>
<!DOCTYPE svg PUBLIC "-//W3C//DTD SVG 20010904//EN"
 "http://www.w3.org/TR/2001/REC-SVG-20010904/DTD/svg10.dtd">
<svg version="1.0" xmlns="http://www.w3.org/2000/svg"
 width="1080.000000pt" height="1080.000000pt" viewBox="0 0 1080.000000 1080.000000"
 preserveAspectRatio="xMidYMid meet">

<g transform="translate(0.000000,1080.000000) scale(0.100000,-0.100000)"
fill="#000000" stroke="none">
<path d="M4956 7268 c-8 -18 -17 -49 -21 -68 -3 -19 -15 -59 -26 -88 -10 -28
-32 -107 -48 -175 -46 -191 -23 -169 -213 -206 -181 -36 -328 -79 -328 -97 0
-6 33 -26 73 -43 142 -64 300 -146 305 -159 3 -8 -5 -64 -16 -126 -23 -118
-52 -358 -52 -426 0 -28 4 -40 14 -40 25 0 99 82 168 185 71 106 168 231 181
234 5 2 50 -42 100 -96 94 -101 240 -233 257 -233 20 0 9 82 -36 256 -26 98
-49 189 -51 200 -4 18 12 35 89 92 51 39 121 93 156 119 35 26 85 62 111 78
66 42 101 71 101 84 0 12 -224 14 -390 2 -81 -5 -95 -9 -98 -24 -3 -17 3 -18
90 -13 294 18 314 18 293 0 -11 -9 -36 -23 -55 -31 -19 -8 -55 -27 -80 -43
-25 -15 -79 -40 -120 -55 -41 -15 -94 -36 -118 -48 l-42 -22 3 -75 c3 -55 17
-117 54 -235 28 -88 54 -173 57 -188 l7 -29 -28 20 c-15 11 -57 51 -92 88 -36
38 -96 102 -135 142 l-70 74 -46 -53 c-25 -29 -63 -76 -85 -105 -143 -187
-179 -233 -183 -230 -5 6 81 324 113 416 21 60 23 76 12 87 -7 7 -96 52 -197
99 -102 47 -189 90 -194 95 -6 5 1 9 20 9 16 0 88 5 159 11 72 6 170 14 220
17 l90 7 12 70 c6 39 13 106 14 150 0 44 5 96 9 115 5 19 11 59 14 89 7 58 16
100 24 115 3 5 13 -15 23 -45 10 -30 32 -92 49 -139 17 -47 44 -126 60 -175
33 -100 53 -136 69 -120 7 7 -16 85 -70 240 -124 354 -126 359 -153 293z m-66
-466 c-6 -48 -14 -90 -18 -93 -4 -4 -56 -9 -116 -12 -59 -3 -107 -5 -105 -3 2
2 42 11 89 21 47 9 90 21 96 26 7 5 22 46 35 90 28 98 35 88 19 -29z m480
-263 c-19 -17 -56 -45 -81 -64 l-47 -33 -5 26 c-7 35 5 46 83 75 86 32 92 32
50 -4z m-602 -117 c9 -7 8 -21 -9 -68 -11 -32 -31 -97 -44 -144 -31 -111 -31
-67 0 90 14 69 25 126 25 128 0 5 15 1 28 -6z"/>
<path d="M6783 6063 l-17 -38 -5 30 c-4 17 -12 30 -19 30 -7 0 -47 -72 -88
-160 -41 -88 -110 -233 -152 -323 -42 -90 -88 -177 -103 -195 -26 -31 -30 -32
-100 -32 -41 1 -123 8 -184 18 -111 17 -248 34 -341 44 -59 6 -76 -7 -48 -38
16 -18 16 -19 -9 -19 -59 0 -20 -41 178 -185 45 -33 106 -81 135 -107 49 -43
52 -49 46 -79 -11 -55 -85 -206 -176 -359 -85 -142 -160 -288 -160 -309 0 -14
16 -14 41 0 18 9 19 7 13 -15 -5 -20 -2 -26 10 -26 65 0 341 202 544 396 l103
99 20 -55 c11 -30 67 -147 123 -260 156 -312 255 -444 256 -342 l1 27 29 -35
c60 -73 62 -12 9 345 -11 77 -31 199 -45 270 -36 191 -38 181 49 194 71 11
260 53 427 94 114 28 224 72 228 90 2 11 -12 18 -49 26 -29 7 -57 15 -63 20
-12 10 -168 52 -280 77 -266 58 -256 57 -256 29 0 -14 57 -35 95 -35 41 0 346
-83 337 -92 -11 -11 -199 -82 -287 -108 -101 -31 -239 -82 -254 -93 -11 -9
-12 -36 -7 -132 24 -440 28 -525 23 -525 -12 0 -202 281 -252 371 -16 30 -41
80 -56 112 -14 32 -31 63 -37 69 -19 19 -124 -53 -450 -304 -63 -49 -115 -88
-118 -88 -4 0 7 27 83 218 46 116 52 127 139 260 57 86 84 135 84 151 0 6 -74
60 -164 120 -90 61 -167 115 -170 120 -4 6 6 8 26 6 221 -30 521 -46 537 -29
14 14 131 235 215 408 42 85 80 157 85 160 9 6 16 -49 27 -204 3 -47 10 -132
15 -190 5 -58 9 -113 9 -123 0 -12 6 -17 17 -15 17 3 19 41 8 138 -1 14 -6 72
-9 130 -4 58 -9 123 -11 145 -17 162 -17 201 -1 233 21 40 27 40 25 0 0 -18 4
-87 10 -153 5 -66 10 -147 10 -180 0 -117 11 -429 16 -433 2 -2 9 -1 16 3 9 6
10 76 4 292 -4 156 -9 301 -11 321 -1 20 -6 66 -9 102 -14 157 -16 170 -31
170 -8 0 -22 -17 -31 -37z m-128 -262 c-43 -86 -93 -187 -112 -226 -37 -75
-64 -113 -40 -55 8 19 37 82 65 140 27 58 74 156 103 219 31 66 55 107 57 96
2 -10 -31 -88 -73 -174z m-222 -431 l-28 -50 -68 0 c-37 0 -132 7 -210 15 -78
8 -182 19 -231 24 -61 6 -93 14 -105 26 -15 16 -14 17 19 11 19 -3 85 -10 145
-16 61 -6 145 -17 189 -25 43 -8 116 -15 162 -15 l83 0 33 40 c18 22 34 40 36
40 2 0 -9 -22 -25 -50z m-610 -64 c23 -18 107 -77 187 -130 80 -53 146 -101
148 -106 2 -5 -8 -26 -23 -47 l-26 -38 6 35 c6 34 3 37 -67 97 -40 34 -104 84
-143 112 -82 59 -143 110 -132 111 5 0 27 -15 50 -34z m1621 -179 c17 -13 17
-14 -10 -25 -72 -27 -282 -77 -291 -68 -2 2 36 17 84 34 48 17 108 40 133 51
55 24 61 25 84 8z m-1164 -448 c-177 -163 -447 -359 -428 -310 3 7 213 170
332 256 23 17 65 49 95 73 76 61 77 51 1 -19z m557 -131 c-2 -13 -4 -5 -4 17
-1 22 1 32 4 23 2 -10 2 -28 0 -40z m-944 5 c-16 -49 -67 -153 -74 -153 -17 0
-8 25 31 98 39 70 56 90 43 55z m970 -145 c9 -62 20 -140 23 -173 6 -54 5 -59
-9 -47 -27 22 -35 64 -36 192 -1 68 -4 127 -7 132 -3 4 -1 8 4 8 4 0 16 -51
25 -112z m-99 -126 c49 -72 67 -112 51 -112 -8 0 -82 114 -110 170 -34 70 -13
48 59 -58z"/>
<path d="M4144 5769 c-3 -6 -4 -54 0 -108 4 -53 2 -177 -4 -276 -6 -99 -12
-214 -14 -255 -7 -159 -19 -265 -30 -277 -10 -10 -55 -24 -321 -98 -266 -74
-507 -167 -513 -197 -2 -10 8 -20 30 -28 l33 -11 -37 -20 c-20 -10 -39 -23
-43 -28 -8 -14 74 -60 148 -83 72 -22 601 -158 616 -158 35 0 -16 64 -74 93
-43 21 -148 62 -235 92 -230 77 -265 91 -262 100 4 13 110 52 327 119 99 31
220 69 270 85 l90 28 13 84 c6 46 14 116 16 154 5 94 17 312 21 355 1 19 3
107 4 194 l1 160 31 -30 c51 -48 309 -413 369 -522 12 -20 37 -62 56 -92 l35
-55 287 -2 c158 -1 301 -3 319 -5 l32 -3 -72 -75 c-39 -41 -110 -113 -157
-160 -47 -47 -107 -112 -135 -144 l-49 -58 17 -66 c10 -37 28 -87 41 -112 13
-25 27 -56 31 -70 4 -14 25 -65 46 -115 21 -49 47 -114 58 -142 l21 -53 -95
70 c-51 38 -179 126 -284 195 -105 70 -193 130 -196 136 -4 5 -12 9 -18 9 -18
0 -129 -192 -263 -455 -64 -126 -127 -243 -140 -260 -12 -16 -29 -46 -37 -65
l-15 -35 -2 50 c-4 181 -11 361 -16 423 -5 59 -9 73 -21 70 -13 -2 -15 -21
-14 -110 1 -59 4 -117 6 -129 2 -11 5 -95 6 -186 0 -92 3 -172 6 -180 10 -25
31 -13 58 35 15 26 98 152 184 279 86 128 183 277 216 332 l61 99 126 -86
c231 -160 385 -273 481 -355 37 -32 71 -56 76 -53 18 11 -86 281 -213 552 -36
77 -68 159 -72 182 -6 40 -5 42 52 94 31 29 105 98 164 153 58 55 139 127 180
161 50 40 75 67 75 81 0 12 9 31 20 43 11 12 15 24 9 30 -19 19 -269 33 -496
28 l-228 -6 -33 57 c-54 91 -223 299 -393 481 -43 47 -88 96 -99 110 -26 34
-42 43 -51 29z m437 -529 c35 -47 75 -107 89 -134 l25 -48 239 5 c213 5 431
-5 445 -19 3 -3 -1 -10 -9 -15 -9 -6 -64 -8 -145 -3 -71 3 -220 6 -331 6
l-202 0 -33 50 c-19 27 -43 66 -54 87 -11 20 -34 57 -51 82 -33 47 -63 100
-47 84 6 -5 39 -48 74 -95z m-483 -447 c-3 -18 -56 -37 -353 -129 -99 -30
-222 -71 -273 -91 -61 -23 -101 -33 -117 -29 -14 4 -25 10 -25 14 0 19 234
103 470 168 47 13 130 37 185 53 121 35 117 35 113 14z m-593 -349 c211 -68
409 -143 401 -151 -2 -3 -55 9 -118 26 -62 16 -151 39 -198 51 -126 30 -242
67 -265 84 -19 14 -19 15 15 29 31 13 38 13 65 0 16 -9 61 -26 100 -39z m1223
-229 c248 -166 334 -228 387 -279 82 -78 46 -65 -82 30 -216 159 -254 186
-372 267 -62 43 -118 76 -123 75 -6 -2 -34 -44 -64 -93 -47 -79 -101 -160
-142 -213 -22 -30 4 31 49 116 82 153 134 232 147 227 8 -3 98 -61 200 -130z"/>
</g>
</svg>
