<?xml version="1.0" standalone="no"?>
<!DOCTYPE svg PUBLIC "-//W3C//DTD SVG 20010904//EN"
 "http://www.w3.org/TR/2001/REC-SVG-20010904/DTD/svg10.dtd">
<svg version="1.0" xmlns="http://www.w3.org/2000/svg"
 width="1080.000000pt" height="1080.000000pt" viewBox="0 0 1080.000000 1080.000000"
 preserveAspectRatio="xMidYMid meet">

<g transform="translate(0.000000,1080.000000) scale(0.100000,-0.100000)"
fill="#000000" stroke="none">
<path d="M5235 7554 c-297 -31 -536 -96 -770 -209 -815 -393 -1304 -1263
-1215 -2156 95 -939 794 -1715 1717 -1904 892 -183 1803 215 2279 996 121 198
221 454 269 686 248 1208 -572 2381 -1795 2568 -102 15 -405 27 -485 19z m373
-124 c376 -40 729 -181 1034 -411 106 -80 297 -271 377 -377 516 -683 561
-1599 113 -2319 -82 -134 -168 -241 -291 -364 -170 -169 -324 -281 -527 -383
-806 -402 -1776 -232 -2393 419 -691 731 -750 1840 -140 2647 80 106 271 297
377 377 235 177 522 312 795 372 202 45 455 60 655 39z"/>
<path d="M5297 6694 c-391 -71 -746 -362 -888 -728 -68 -176 -82 -254 -82
-446 0 -164 2 -182 31 -293 17 -66 52 -163 80 -220 l49 -102 -79 -284 c-43
-156 -76 -286 -74 -289 3 -2 141 28 306 67 l301 71 59 -30 c346 -175 802 -152
1141 56 478 295 689 876 510 1406 -137 406 -501 720 -919 793 -106 19 -330 18
-435 -1z m373 -189 c327 -49 598 -250 745 -550 79 -159 100 -253 99 -440 -1
-128 -5 -164 -26 -246 -78 -290 -282 -534 -551 -659 -120 -56 -230 -81 -377
-87 -195 -8 -335 23 -509 111 l-84 42 -178 -41 c-99 -23 -179 -38 -179 -34 0
5 21 83 46 174 l45 164 -40 67 c-95 158 -135 308 -135 514 0 182 22 278 99
435 67 137 156 251 266 338 226 181 498 255 779 212z"/>
<path d="M4975 6006 c-48 -48 -70 -112 -70 -206 0 -75 4 -93 33 -154 48 -102
114 -189 232 -306 253 -252 516 -401 684 -388 46 4 81 15 125 38 179 96 142
209 -108 336 -91 46 -108 42 -161 -37 -23 -33 -48 -63 -56 -66 -20 -8 -144 43
-212 86 -32 21 -78 58 -101 82 -48 50 -141 195 -141 220 0 9 25 41 56 71 40
39 57 62 57 81 0 28 -61 117 -141 206 -47 53 -51 55 -110 59 -55 4 -63 2 -87
-22z"/>
</g>
</svg>
