<?xml version="1.0" standalone="no"?>
<!DOCTYPE svg PUBLIC "-//W3C//DTD SVG 20010904//EN"
 "http://www.w3.org/TR/2001/REC-SVG-20010904/DTD/svg10.dtd">
<svg version="1.0" xmlns="http://www.w3.org/2000/svg"
 width="1080.000000pt" height="1080.000000pt" viewBox="0 0 1080.000000 1080.000000"
 preserveAspectRatio="xMidYMid meet">

<g transform="translate(0.000000,1080.000000) scale(0.100000,-0.100000)"
fill="#000000" stroke="none">
<path d="M5139 7557 c-2 -3 -53 -7 -114 -11 -318 -18 -659 -79 -883 -158 -200
-70 -354 -175 -404 -276 l-23 -47 0 -1665 0 -1665 23 -42 c32 -61 77 -109 145
-155 199 -136 589 -236 1082 -279 161 -14 608 -18 770 -6 727 51 1224 216
1325 440 19 41 20 84 20 1708 l0 1665 -26 52 c-66 132 -273 246 -591 327 -130
33 -356 70 -508 85 -66 6 -133 13 -150 16 -37 6 -659 16 -666 11z m626 -158
c542 -42 969 -157 1117 -299 41 -40 48 -52 48 -85 0 -81 -141 -177 -368 -251
-695 -225 -1973 -189 -2507 71 -105 51 -156 91 -179 139 -22 46 -13 76 36 125
142 140 596 263 1108 300 144 10 611 10 745 0z m-1867 -648 c144 -101 477
-198 842 -245 170 -22 215 -26 445 -37 193 -9 267 -8 535 7 476 26 940 130
1153 259 l57 34 0 -425 c0 -485 6 -452 -88 -521 -220 -164 -812 -278 -1447
-278 -657 0 -1255 121 -1469 297 -66 55 -66 51 -66 513 0 228 3 415 6 415 3 0
18 -8 32 -19z m0 -1070 c161 -113 566 -222 972 -260 206 -19 288 -23 530 -23
240 0 277 2 510 23 425 39 810 140 988 259 l32 22 0 -431 0 -431 -41 -45 c-69
-75 -255 -157 -484 -214 -782 -193 -2027 -110 -2438 163 -108 72 -102 37 -105
529 -1 235 0 427 4 427 3 0 18 -8 32 -19z m3 -1072 c162 -115 645 -237 1049
-264 52 -4 111 -8 130 -11 48 -5 574 -5 635 0 28 3 84 8 125 11 425 33 844
134 1026 247 22 14 45 28 52 32 9 6 12 -84 12 -434 l0 -441 -44 -44 c-97 -96
-365 -195 -681 -249 -417 -72 -1000 -82 -1442 -26 -397 51 -723 155 -846 269
-58 53 -57 44 -57 506 0 234 3 425 6 425 3 0 19 -9 35 -21z"/>
<path d="M4044 6498 c-62 -30 -61 -138 3 -167 39 -18 71 -13 105 18 25 22 32
36 32 66 0 68 -77 114 -140 83z"/>
<path d="M5828 6237 l-108 -9 0 -43 c0 -23 3 -57 6 -75 l7 -32 76 6 c179 16
180 16 176 45 -2 14 -7 47 -10 74 -5 36 -10 47 -23 45 -9 0 -65 -5 -124 -11z"/>
<path d="M4026 6125 c-63 -58 -19 -165 69 -165 30 0 81 43 89 74 22 87 -92
153 -158 91z"/>
<path d="M5870 5990 c-102 -12 -235 -19 -357 -20 l-113 0 0 -75 0 -76 123 2
c115 1 248 9 399 24 66 7 67 7 63 33 -2 15 -7 48 -10 75 -5 36 -10 47 -23 46
-9 -1 -46 -5 -82 -9z"/>
<path d="M4025 5365 c-37 -37 -37 -96 1 -135 49 -50 144 -21 157 48 7 34 -15
87 -41 101 -37 20 -91 13 -117 -14z"/>
<path d="M5855 5143 c-16 -1 -54 -6 -84 -9 l-54 -6 5 -69 c3 -38 7 -71 9 -73
2 -2 60 1 129 8 l125 11 -3 35 c-1 19 -5 52 -8 73 -6 36 -7 37 -47 36 -23 -1
-55 -4 -72 -6z"/>
<path d="M4051 5024 c-37 -15 -62 -65 -54 -107 3 -15 19 -39 36 -53 75 -63
180 21 142 112 -21 50 -72 70 -124 48z"/>
<path d="M5879 4896 c-2 -2 -58 -7 -124 -11 -66 -3 -149 -8 -185 -10 -36 -3
-89 -5 -117 -5 l-53 0 0 -75 0 -76 143 6 c153 6 389 23 423 30 15 3 20 11 18
27 -2 13 -6 44 -9 71 l-6 47 -43 0 c-23 0 -45 -2 -47 -4z"/>
<path d="M4031 4293 c-44 -41 -46 -100 -5 -138 47 -43 121 -28 149 31 20 42
11 77 -27 109 -39 33 -80 32 -117 -2z"/>
<path d="M5828 4047 l-108 -10 0 -42 c0 -23 3 -57 6 -75 l7 -32 81 6 c172 14
176 15 171 45 -2 14 -7 47 -10 74 -5 36 -10 47 -23 45 -9 -1 -65 -6 -124 -11z"/>
<path d="M4044 3948 c-62 -30 -61 -138 3 -167 39 -18 71 -13 105 18 25 22 32
36 32 66 0 68 -77 114 -140 83z"/>
<path d="M5929 3806 c-2 -2 -51 -7 -109 -11 -58 -4 -116 -9 -130 -10 -14 -2
-85 -4 -157 -4 l-133 -1 0 -77 0 -76 198 7 c108 3 217 9 242 11 25 3 68 8 97
11 50 5 52 6 48 32 -2 15 -7 48 -10 75 -5 36 -10 47 -24 47 -10 0 -20 -2 -22
-4z"/>
</g>
</svg>
