<?xml version="1.0" standalone="no"?>
<!DOCTYPE svg PUBLIC "-//W3C//DTD SVG 20010904//EN"
 "http://www.w3.org/TR/2001/REC-SVG-20010904/DTD/svg10.dtd">
<svg version="1.0" xmlns="http://www.w3.org/2000/svg"
 width="1080.000000pt" height="1080.000000pt" viewBox="0 0 1080.000000 1080.000000"
 preserveAspectRatio="xMidYMid meet">

<g transform="translate(0.000000,1080.000000) scale(0.100000,-0.100000)"
fill="#000000" stroke="none">
<path d="M4196 6894 c-437 -79 -791 -398 -910 -820 -34 -119 -44 -189 -44
-309 0 -294 112 -580 311 -792 l49 -52 -146 -366 c-80 -201 -146 -371 -146
-379 0 -29 41 -66 73 -66 28 0 80 40 356 273 l324 273 81 -18 c179 -40 385
-33 563 17 96 28 248 97 318 145 l44 30 71 -53 c203 -153 452 -253 729 -292
165 -24 430 -16 576 16 55 12 109 22 121 23 15 1 99 -84 307 -310 157 -171
296 -314 308 -317 24 -6 70 8 81 26 15 24 6 80 -81 467 l-87 394 89 86 c236
223 357 475 374 775 16 292 -104 588 -332 820 -213 217 -492 359 -828 422
-129 24 -455 24 -584 0 -205 -39 -398 -111 -561 -209 l-92 -56 -83 62 c-92 69
-236 143 -341 175 -163 50 -380 64 -540 35z m443 -160 c106 -27 229 -82 318
-142 92 -62 92 -58 12 -142 -138 -147 -237 -323 -286 -507 -23 -86 -26 -117
-26 -253 0 -134 4 -168 26 -253 42 -158 130 -328 239 -459 l38 -46 -30 -22
c-51 -37 -192 -98 -275 -120 -168 -44 -348 -44 -532 1 -84 21 -93 21 -115 7
-13 -9 -117 -95 -231 -192 -115 -97 -210 -176 -213 -176 -4 0 9 35 117 301 43
107 79 204 79 215 0 11 -36 57 -82 106 -141 146 -238 330 -274 517 -18 91 -20
283 -4 369 77 428 430 762 865 821 102 14 263 3 374 -25z m1611 26 c271 -28
518 -118 713 -258 85 -61 234 -210 286 -285 54 -79 119 -227 141 -321 27 -110
28 -277 5 -390 -44 -214 -169 -413 -359 -576 -68 -57 -96 -88 -96 -104 0 -12
29 -152 64 -311 36 -159 63 -291 62 -293 -2 -1 -97 99 -211 223 -114 124 -216
230 -226 235 -13 7 -50 2 -131 -19 -151 -39 -312 -55 -462 -48 -500 26 -925
268 -1127 641 -162 301 -144 663 48 954 52 78 182 212 274 281 269 203 663
308 1019 271z"/>
<path d="M5323 6032 c-252 -90 -267 -426 -23 -535 63 -29 159 -28 228 3 97 42
172 155 172 259 0 190 -201 336 -377 273z m157 -147 c126 -65 77 -265 -65
-265 -143 0 -199 182 -80 260 36 24 104 26 145 5z"/>
<path d="M6055 6041 c-84 -22 -155 -80 -196 -161 -31 -61 -32 -166 -3 -231 70
-152 241 -217 387 -146 104 52 161 144 161 262 0 81 -29 148 -86 201 -67 64
-182 97 -263 75z m142 -161 c87 -52 83 -198 -6 -245 -98 -50 -211 16 -211 123
0 85 56 142 140 142 27 0 58 -8 77 -20z"/>
<path d="M6775 6041 c-84 -22 -155 -80 -196 -161 -31 -61 -32 -166 -3 -231 70
-152 241 -217 387 -146 104 52 161 144 161 262 0 81 -29 148 -86 201 -67 64
-182 97 -263 75z m142 -161 c87 -52 83 -198 -6 -245 -98 -50 -211 16 -211 123
0 85 56 142 140 142 27 0 58 -8 77 -20z"/>
</g>
</svg>
