<?xml version="1.0" standalone="no"?>
<!DOCTYPE svg PUBLIC "-//W3C//DTD SVG 20010904//EN"
 "http://www.w3.org/TR/2001/REC-SVG-20010904/DTD/svg10.dtd">
<svg version="1.0" xmlns="http://www.w3.org/2000/svg"
 width="1080.000000pt" height="1080.000000pt" viewBox="0 0 1080.000000 1080.000000"
 preserveAspectRatio="xMidYMid meet">

<g transform="translate(0.000000,1080.000000) scale(0.100000,-0.100000)"
fill="#000000" stroke="none">
<path d="M3913 7065 c-69 -19 -117 -44 -180 -94 -54 -42 -133 -144 -158 -203
-40 -98 -38 -266 5 -381 17 -45 40 -77 104 -143 l83 -84 -68 0 c-115 0 -241
-51 -327 -133 -19 -18 -49 -59 -67 -92 -65 -115 -65 -117 -65 -760 l0 -582 26
-24 26 -24 1245 -5 1245 -5 21 -55 c11 -30 35 -77 53 -105 44 -66 621 -641
657 -654 44 -17 99 -13 137 10 50 30 607 594 646 654 18 28 41 74 51 103 l18
52 67 0 c57 0 71 4 97 26 l31 26 0 587 c0 644 -1 652 -60 757 -79 138 -259
224 -466 224 l-76 0 45 38 c89 73 142 159 171 273 20 79 20 124 2 210 -50 236
-253 399 -496 399 -306 -1 -543 -299 -479 -602 20 -91 68 -177 141 -249 l67
-67 -87 -4 c-48 -3 -107 -12 -132 -21 l-45 -16 -30 28 c-190 181 -507 176
-694 -10 -99 -100 -143 -208 -144 -354 0 -153 45 -257 158 -364 30 -29 55 -54
55 -55 0 -2 -34 -6 -75 -8 -123 -8 -221 -68 -310 -191 -17 -24 -25 -27 -51
-21 l-32 6 41 42 c49 50 94 142 109 224 23 126 -23 264 -121 363 -60 59 -118
92 -197 111 -45 10 -53 17 -80 61 -41 69 -104 123 -190 164 -65 31 -88 37
-169 41 l-93 5 62 58 c77 72 119 147 146 265 18 76 19 98 10 156 -41 265 -241
440 -500 437 -41 0 -99 -7 -127 -14z m279 -167 c70 -32 133 -96 167 -168 22
-47 26 -68 26 -150 -1 -113 -22 -168 -95 -240 -137 -138 -353 -138 -490 0 -62
61 -92 128 -98 216 -11 166 84 310 237 359 71 23 184 15 253 -17z m2643 1 c74
-34 147 -112 175 -184 53 -140 20 -288 -87 -385 -174 -159 -450 -103 -549 112
-56 122 -34 269 57 372 39 45 98 84 154 103 62 20 189 11 250 -18z m-915 -799
c100 -51 154 -116 184 -219 20 -69 20 -123 0 -191 -30 -101 -91 -171 -189
-217 -51 -24 -73 -28 -145 -28 -71 0 -94 4 -142 27 -100 46 -179 147 -196 249
-12 71 3 172 35 230 35 65 110 132 176 159 73 29 212 24 277 -10z m-1420 -109
c49 -19 130 -75 130 -91 0 -5 -25 -20 -55 -34 -30 -14 -79 -48 -109 -76 -169
-160 -180 -425 -23 -593 l42 -45 -41 -7 c-62 -9 -154 -58 -201 -106 -64 -66
-95 -144 -101 -250 l-5 -89 -373 0 -374 0 0 518 c0 319 4 534 11 562 22 96
106 186 203 216 30 9 145 13 443 13 372 1 407 0 453 -18z m2702 -18 c83 -39
149 -99 183 -166 l25 -51 0 -533 c0 -503 -1 -533 -18 -533 -13 0 -20 14 -29
62 -35 181 -180 335 -364 383 -118 32 -267 12 -369 -49 l-55 -32 -72 38 c-63
34 -72 42 -78 74 -9 48 -79 117 -158 155 -61 29 -74 32 -170 44 l-48 6 44 34
c53 41 117 133 147 213 30 79 37 198 16 282 -24 92 -24 93 4 101 14 4 216 7
450 6 l425 -2 67 -32z m-2325 -249 c82 -39 133 -114 148 -216 22 -149 -116
-298 -276 -298 -152 0 -285 152 -265 303 26 193 217 295 393 211z m1326 -541
l52 -26 -70 -14 c-197 -36 -371 -205 -402 -388 l-8 -50 -203 -3 -202 -2 0 54
c0 117 -32 206 -102 282 l-41 45 30 37 c17 20 54 49 83 65 l52 27 379 0 380 0
52 -27z m-1113 -204 c88 -40 120 -92 123 -204 l2 -75 -462 0 -463 0 0 51 c0
78 19 135 59 180 58 65 78 68 406 68 270 1 293 -1 335 -20z m1310 -2 c30 -13
77 -40 103 -60 27 -20 58 -37 70 -37 13 0 49 20 82 45 78 59 145 79 246 73
197 -12 337 -176 323 -379 -8 -111 -29 -140 -355 -465 l-299 -299 -295 295
c-319 320 -340 348 -352 464 -9 85 23 191 80 268 76 103 267 148 397 95z"/>
</g>
</svg>
