<svg width="24" height="24" viewBox="0 0 24 24" fill="none" xmlns="http://www.w3.org/2000/svg">
<path fill-rule="evenodd" clip-rule="evenodd" d="M0 12C0 5.37242 5.37242 0 12 0C18.6276 0 24 5.37242 24 12C24 18.6276 18.6276 24 12 24C5.37242 24 0 18.6276 0 12ZM12 2.18182C6.5774 2.18182 2.18182 6.5774 2.18182 12C2.18182 17.4226 6.5774 21.8182 12 21.8182C17.4226 21.8182 21.8182 17.4226 21.8182 12C21.8182 6.5774 17.4226 2.18182 12 2.18182Z" fill="#6990FF"/>
<path fill-rule="evenodd" clip-rule="evenodd" d="M16.0445 9.04681C16.4705 9.47284 16.4705 10.1636 16.0445 10.5896L11.6808 14.9532C11.2548 15.3792 10.5641 15.3792 10.1381 14.9532L7.95624 12.7714C7.53021 12.3454 7.53021 11.6546 7.95624 11.2286C8.38227 10.8026 9.07299 10.8026 9.49902 11.2286L10.9094 12.6391L14.5017 9.04681C14.9277 8.62079 15.6185 8.62079 16.0445 9.04681Z" fill="#6990FF"/>
</svg>
